<svg width="55" height="12" viewBox="0 0 55 12" fill="none" xmlns="http://www.w3.org/2000/svg">
<path d="M4.24944 11L0.637438 0.64H2.35944L5.31344 9.25L8.25344 0.64H9.97544L6.34944 11H4.24944ZM12.2539 2.306C11.9646 2.306 11.7266 2.208 11.5399 2.012C11.3533 1.816 11.2599 1.58733 11.2599 1.326C11.2599 1.05533 11.3533 0.826666 11.5399 0.64C11.7266 0.444 11.9646 0.345999 12.2539 0.345999C12.5433 0.345999 12.7813 0.444 12.9679 0.64C13.1639 0.826666 13.2619 1.05533 13.2619 1.326C13.2619 1.59667 13.1639 1.83 12.9679 2.026C12.7813 2.21267 12.5433 2.306 12.2539 2.306ZM11.4699 11V3.58H13.0659V11H11.4699ZM18.6014 11.14C17.9761 11.14 17.4347 11.0327 16.9774 10.818C16.5294 10.594 16.1561 10.3 15.8574 9.936C15.5681 9.56267 15.3487 9.14733 15.1994 8.69C15.0594 8.23267 14.9894 7.766 14.9894 7.29C14.9894 6.82333 15.0594 6.36133 15.1994 5.904C15.3394 5.44667 15.5541 5.03133 15.8434 4.658C16.1327 4.28467 16.5014 3.99067 16.9494 3.776C17.3974 3.552 17.9247 3.44 18.5314 3.44C19.1847 3.44 19.7587 3.58933 20.2534 3.888C20.7574 4.17733 21.1494 4.61133 21.4294 5.19C21.7187 5.75933 21.8634 6.46867 21.8634 7.318V7.752H16.5994C16.6367 8.32133 16.8281 8.81133 17.1734 9.222C17.5187 9.63267 17.9947 9.838 18.6014 9.838C18.9467 9.838 19.2314 9.782 19.4554 9.67C19.6794 9.54867 19.8521 9.41333 19.9734 9.264C20.0947 9.11467 20.1787 8.984 20.2254 8.872C20.2814 8.76 20.3094 8.704 20.3094 8.704H21.7934C21.7934 8.704 21.7701 8.788 21.7234 8.956C21.6767 9.11467 21.5881 9.31533 21.4574 9.558C21.3361 9.80067 21.1587 10.0433 20.9254 10.286C20.6921 10.5287 20.3841 10.734 20.0014 10.902C19.6187 11.0607 19.1521 11.14 18.6014 11.14ZM16.6134 6.632H20.3234C20.2861 5.97867 20.0901 5.498 19.7354 5.19C19.3901 4.882 18.9841 4.728 18.5174 4.728C17.9947 4.728 17.5607 4.90067 17.2154 5.246C16.8701 5.582 16.6694 6.044 16.6134 6.632ZM25.1535 11L22.7875 3.58H24.3975L26.0215 8.942L27.7295 3.58H29.2135L30.9215 8.942L32.5455 3.58H34.1695L31.7895 11H30.0955L28.4715 5.904L26.8615 11H25.1535ZM38.3901 11L42.0021 0.64H44.1021L47.7281 11H46.0061L45.2081 8.676H40.9101L40.1121 11H38.3901ZM41.4001 7.22H44.7181L43.0661 2.39L41.4001 7.22ZM49.3531 11L49.3671 0.359999H50.9491V11H49.3531ZM53.0718 11L53.0858 0.359999H54.6678V11H53.0718Z" fill="#262626"/>
</svg>
